PathFileType	4	(x/y/z)	TRC_MarkerData\Calibration\Standing_Cal_SL_Passive0001.trc
DataRate	CameraRate	NumFrames	NumMarkers	Units	OrigDataRate	OrigDataStartFrame	OrigNumFrames
240	240	7	50	mm	240	1801	2400
Frame#	Time	R_AC			L_AC			HEAD			STERN			C7			L_IC			R_IC			L_ASIS			R_ASIS			L_GT			R_GT			L_PSIS			R_PSIS			SACRAL			L_LAT_KNEE			L_MED_KNEE			R_LAT_KNEE			R_MED_KNEE			L_LAT_ANK			L_MED_ANK			R_LAT_ANK			R_MED_ANK			L_THIGH_PROX_POST			L_THIGH_PROX_ANT			L_THIGH_DIST_ANT			L_THIGH_DIST_POST			R_THIGH_PROX_POST			R_THIGH_PROX_ANT			R_THIGH_DIST_ANT			R_THIGH_DIST_POST			L_SHANK_PROX_POST			L_SHANK_PROX_ANT			L_SHANK_DIST_ANT			L_SHANK_DIST_POST			R_SHANK_PROX_POST			R_SHANK_PROX_ANT			R_SHANK_DIST_ANT			R_SHANK_DIST_POST			L_HEEL_LAT			L_HEEL_SUP			L_HEEL_MED			R_HEEL_LAT			R_HEEL_SUP			R_HEEL_MED			L_1ST_MET			L_5TH_MET			L_TOE			R_1ST_MET			R_5TH_MET			R_TOE			
		X1	Y1	Z1	X2	Y2	Z2	X3	Y3	Z3	X4	Y4	Z4	X5	Y5	Z5	X6	Y6	Z6	X7	Y7	Z7	X8	Y8	Z8	X9	Y9	Z9	X10	Y10	Z10	X11	Y11	Z11	X12	Y12	Z12	X13	Y13	Z13	X14	Y14	Z14	X15	Y15	Z15	X16	Y16	Z16	X17	Y17	Z17	X18	Y18	Z18	X19	Y19	Z19	X20	Y20	Z20	X21	Y21	Z21	X22	Y22	Z22	X23	Y23	Z23	X24	Y24	Z24	X25	Y25	Z25	X26	Y26	Z26	X27	Y27	Z27	X28	Y28	Z28	X29	Y29	Z29	X30	Y30	Z30	X31	Y31	Z31	X32	Y32	Z32	X33	Y33	Z33	X34	Y34	Z34	X35	Y35	Z35	X36	Y36	Z36	X37	Y37	Z37	X38	Y38	Z38	X39	Y39	Z39	X40	Y40	Z40	X41	Y41	Z41	X42	Y42	Z42	X43	Y43	Z43	X44	Y44	Z44	X45	Y45	Z45	X46	Y46	Z46	X47	Y47	Z47	X48	Y48	Z48	X49	Y49	Z49	X50	Y50	Z50	

1801	7.5031	545.14	1583.2	475.4	544.08	1604.5	172.77	659.14	1858.1	337.61	671.39	1531.8	328.5	521.69	1598.5	327.08	595.17	1132.4	149.37	612.84	1123.7	489.08	667.27	1056.3	176.14	674.4	1039.8	448.97	570.26	983.22	125.23	583.45	971.98	498.24	464.64	1075.1	273.37	476.86	1070.8	379.73	455.1	1052	328.28	578.98	573.23	125.48	603.3	567.9	259.82	530.7	559.35	497.96	554.72	541.12	373.36	490.14	128.48	105.93	493.96	125.95	184.3	467.02	95.979	485.3	504.65	116.15	391.4	540.5	830.37	131.15	604.35	822.16	117.44	601.74	746.3	122.78	539.05	756.13	136.78	542.91	807.8	503.84	609.48	801.53	511.92	596.51	727.69	507.64	528.97	733.72	497.44	581.12	519.13	128.04	624.79	529.92	138.57	622.13	479.55	140.44	572.47	465.37	129.14	433.12	407.95	489.63	498.02	415.12	517.58	502.44	340.42	514.33	438.29	331.37	489.24	426.39	53.087	105.08	417.58	76.285	142.3	427.43	43.054	172.03	408.61	39.042	452.96	404.65	65.558	416.94	425.91	38.795	387.9	655.06	48.509	186.55	633.12	48.277	82.533	705.91	58.493	160.92	654.18	50.516	427.71	605.24	33.484	530.13	688.72	57.42	484.35
1802	7.5073	545.1	1583.2	475.38	544.04	1604.5	172.75	659.12	1858.1	337.61	671.35	1531.8	328.49	521.64	1598.5	327.06	595.14	1132.4	149.36	612.84	1123.7	489.06	667.24	1056.3	176.11	674.39	1039.8	448.95	570.22	983.22	125.21	583.44	971.98	498.23	464.63	1075.1	273.36	476.85	1070.8	379.73	455.09	1052	328.27	578.94	573.22	125.47	603.26	567.91	259.81	530.68	559.35	497.94	554.7	541.12	373.35	490.14	128.47	105.93	493.98	125.94	184.28	467.02	95.978	485.3	504.65	116.15	391.4	540.46	830.37	131.13	604.31	822.16	117.42	601.7	746.31	122.76	539.01	756.13	136.76	542.91	807.8	503.82	609.48	801.52	511.89	596.5	727.69	507.61	528.96	733.71	497.42	581.08	519.12	128.03	624.75	529.92	138.56	622.1	479.55	140.42	572.44	465.36	129.13	433.1	407.95	489.62	498	415.12	517.57	502.43	340.42	514.32	438.28	331.37	489.23	426.39	53.076	105.07	417.58	76.271	142.3	427.43	43.048	172.03	408.6	39.039	452.96	404.64	65.556	416.94	425.91	38.794	387.9	655.06	48.511	186.55	633.12	48.276	82.532	705.91	58.496	160.91	654.17	50.516	427.71	605.24	33.485	530.13	688.71	57.422	484.35
1803	7.5115	545.05	1583.2	475.37	543.99	1604.4	172.73	659.1	1858.1	337.6	671.31	1531.8	328.49	521.59	1598.5	327.05	595.12	1132.5	149.34	612.83	1123.7	489.05	667.22	1056.3	176.09	674.38	1039.8	448.92	570.2	983.22	125.2	583.43	971.97	498.21	464.61	1075.1	273.35	476.83	1070.8	379.72	455.07	1052	328.26	578.91	573.22	125.45	603.23	567.91	259.79	530.66	559.35	497.93	554.68	541.11	373.33	490.13	128.47	105.93	494	125.93	184.25	467.02	95.977	485.3	504.65	116.14	391.4	540.43	830.37	131.12	604.28	822.16	117.4	601.67	746.31	122.73	538.98	756.13	136.74	542.89	807.8	503.8	609.47	801.52	511.86	596.49	727.69	507.59	528.95	733.71	497.4	581.04	519.11	128.02	624.72	529.93	138.55	622.07	479.55	140.41	572.41	465.36	129.12	433.09	407.95	489.61	497.99	415.12	517.56	502.42	340.42	514.32	438.26	331.37	489.22	426.39	53.067	105.07	417.58	76.258	142.3	427.42	43.043	172.03	408.6	39.036	452.96	404.64	65.554	416.94	425.91	38.792	387.9	655.06	48.512	186.55	633.11	48.275	82.531	705.91	58.5	160.91	654.17	50.517	427.71	605.24	33.485	530.13	688.71	57.424	484.35
1804	7.5156	545.01	1583.2	475.36	543.95	1604.4	172.72	659.09	1858.1	337.6	671.27	1531.8	328.48	521.55	1598.5	327.04	595.1	1132.5	149.33	612.82	1123.7	489.04	667.19	1056.3	176.06	674.37	1039.8	448.9	570.17	983.22	125.18	583.42	971.97	498.19	464.59	1075.2	273.34	476.81	1070.8	379.71	455.05	1052	328.26	578.87	573.22	125.44	603.19	567.91	259.78	530.64	559.35	497.92	554.66	541.11	373.32	490.13	128.46	105.92	494.01	125.93	184.23	467.02	95.976	485.3	504.65	116.14	391.39	540.4	830.37	131.1	604.25	822.16	117.38	601.63	746.32	122.71	538.94	756.14	136.73	542.88	807.79	503.77	609.46	801.52	511.84	596.48	727.68	507.57	528.94	733.71	497.39	581.01	519.1	128	624.69	529.93	138.54	622.04	479.55	140.4	572.38	465.36	129.11	433.07	407.95	489.6	497.98	415.12	517.56	502.41	340.42	514.31	438.25	331.36	489.22	426.39	53.057	105.07	417.57	76.245	142.29	427.42	43.038	172.03	408.6	39.033	452.95	404.64	65.552	416.94	425.91	38.791	387.9	655.05	48.513	186.55	633.11	48.275	82.53	705.9	58.503	160.91	654.17	50.517	427.71	605.24	33.486	530.13	688.71	57.425	484.35
1805	7.5198	544.96	1583.2	475.35	543.91	1604.4	172.7	659.07	1858.1	337.59	671.23	1531.8	328.48	521.5	1598.5	327.02	595.08	1132.5	149.32	612.81	1123.7	489.03	667.17	1056.3	176.04	674.35	1039.8	448.88	570.15	983.22	125.16	583.41	971.97	498.17	464.58	1075.2	273.33	476.8	1070.8	379.7	455.04	1052	328.25	578.84	573.22	125.43	603.16	567.92	259.76	530.63	559.35	497.91	554.64	541.1	373.31	490.12	128.45	105.92	494.03	125.92	184.21	467.02	95.975	485.3	504.65	116.14	391.39	540.37	830.37	131.09	604.22	822.16	117.37	601.6	746.32	122.69	538.91	756.14	136.71	542.87	807.79	503.75	609.45	801.52	511.82	596.47	727.68	507.54	528.92	733.71	497.38	580.97	519.09	127.99	624.66	529.93	138.53	622.02	479.55	140.39	572.36	465.35	129.1	433.06	407.95	489.6	497.96	415.12	517.55	502.4	340.42	514.31	438.24	331.36	489.21	426.39	53.048	105.07	417.57	76.233	142.29	427.42	43.033	172.03	408.6	39.031	452.95	404.64	65.55	416.94	425.91	38.79	387.9	655.05	48.514	186.55	633.11	48.274	82.529	705.9	58.506	160.91	654.17	50.517	427.71	605.24	33.487	530.13	688.71	57.426	484.34
1806	7.524	544.92	1583.2	475.33	543.86	1604.4	172.68	659.05	1858.1	337.58	671.19	1531.8	328.47	521.45	1598.5	327.01	595.06	1132.5	149.3	612.79	1123.7	489.02	667.15	1056.3	176.02	674.34	1039.8	448.86	570.13	983.22	125.14	583.4	971.96	498.16	464.56	1075.2	273.32	476.78	1070.8	379.69	455.02	1052	328.24	578.81	573.21	125.42	603.13	567.92	259.75	530.61	559.35	497.9	554.62	541.1	373.3	490.12	128.44	105.92	494.05	125.91	184.19	467.02	95.974	485.3	504.65	116.14	391.39	540.34	830.37	131.07	604.19	822.16	117.36	601.57	746.32	122.68	538.88	756.14	136.7	542.86	807.79	503.73	609.44	801.52	511.79	596.45	727.68	507.52	528.91	733.71	497.36	580.94	519.08	127.98	624.63	529.93	138.52	621.99	479.55	140.38	572.33	465.35	129.09	433.04	407.95	489.59	497.95	415.12	517.54	502.39	340.42	514.3	438.23	331.36	489.2	426.39	53.039	105.06	417.57	76.221	142.29	427.42	43.028	172.03	408.6	39.029	452.95	404.63	65.549	416.94	425.91	38.789	387.9	655.05	48.515	186.55	633.11	48.273	82.529	705.9	58.508	160.91	654.17	50.517	427.7	605.24	33.487	530.13	688.71	57.427	484.34
1807	7.5281	544.88	1583.2	475.32	543.82	1604.4	172.67	659.02	1858.1	337.57	671.15	1531.8	328.46	521.4	1598.5	327	595.04	1132.5	149.29	612.78	1123.7	489	667.13	1056.3	176	674.32	1039.8	448.84	570.11	983.22	125.13	583.38	971.96	498.14	464.55	1075.2	273.31	476.77	1070.8	379.68	455.01	1052	328.22	578.78	573.21	125.41	603.1	567.92	259.74	530.59	559.35	497.89	554.6	541.1	373.28	490.11	128.44	105.92	494.06	125.9	184.17	467.01	95.973	485.3	504.64	116.14	391.39	540.32	830.37	131.06	604.17	822.16	117.34	601.54	746.32	122.66	538.86	756.15	136.68	542.84	807.79	503.71	609.42	801.52	511.78	596.44	727.68	507.51	528.9	733.71	497.35	580.91	519.07	127.97	624.6	529.93	138.51	621.97	479.56	140.37	572.31	465.35	129.08	433.03	407.96	489.58	497.94	415.12	517.54	502.38	340.42	514.3	438.22	331.36	489.2	426.38	53.031	105.06	417.56	76.21	142.28	427.42	43.023	172.02	408.6	39.028	452.95	404.63	65.547	416.94	425.9	38.788	387.9	655.05	48.516	186.55	633.11	48.273	82.528	705.9	58.511	160.91	654.17	50.518	427.7	605.24	33.488	530.13	688.71	57.429	484.34
